<?xml version="1.0" encoding="UTF-8" standalone="no"?> <svg width="48" height="48" viewBox="0 0 48 48" fill="none" xmlns="http://www.w3.org/2000/svg">
<path d="M43 9V24H24V5H39C40.0609 5 41.0783 5.42143 41.8284 6.17157C42.5786 6.92172 43 7.93913 43 9Z" fill="#FAC100"/>
<path d="M43 19H24V24H43V19Z" fill="#FF9500"/>
<path d="M24 5V24H5V9C5 7.93913 5.42143 6.92172 6.17157 6.17157C6.92172 5.42143 7.93913 5 9 5H24Z" fill="#00CF66"/>
<path d="M5 24L24 24V19L5 19V24Z" fill="#00B157"/>
<path d="M24 24V43H9C7.93913 43 6.92172 42.5786 6.17157 41.8284C5.42143 41.0783 5 40.0609 5 39V24H24Z" fill="#FD3730"/>
<path d="M24 43H9C7.93913 43 6.92172 42.5786 6.17157 41.8284C5.42143 41.0783 5 40.0609 5 39V38H24V43Z" fill="#D3241F"/>
<path d="M43 24V39C43 40.0609 42.5786 41.0783 41.8284 41.8284C41.0783 42.5786 40.0609 43 39 43H24V24H43Z" fill="#009AE0"/>
<path d="M24 38H43V39C43 40.0609 42.5786 41.0783 41.8284 41.8284C41.0783 42.5786 40.0609 43 39 43H24V38Z" fill="#0081BD"/>
<path d="M39 4H9C7.6744 4.00159 6.40356 4.52888 5.46622 5.46622C4.52888 6.40356 4.00159 7.6744 4 9V39C4.00159 40.3256 4.52888 41.5964 5.46622 42.5338C6.40356 43.4711 7.6744 43.9984 9 44H39C40.3256 43.9984 41.5964 43.4711 42.5338 42.5338C43.4711 41.5964 43.9984 40.3256 44 39V9C43.9984 7.6744 43.4711 6.40356 42.5338 5.46622C41.5964 4.52888 40.3256 4.00159 39 4V4ZM42 9V23H25V6H39C39.7956 6 40.5587 6.31607 41.1213 6.87868C41.6839 7.44129 42 8.20435 42 9ZM9 6H23V23H6V9C6 8.20435 6.31607 7.44129 6.87868 6.87868C7.44129 6.31607 8.20435 6 9 6V6ZM6 39V25H23V42H9C8.20435 42 7.44129 41.6839 6.87868 41.1213C6.31607 40.5587 6 39.7956 6 39ZM39 42H25V25H42V39C42 39.7956 41.6839 40.5587 41.1213 41.1213C40.5587 41.6839 39.7956 42 39 42Z" fill="black"/>
<path d="M11 15.5H13.5V18C13.5 18.2652 13.6054 18.5196 13.7929 18.7071C13.9804 18.8946 14.2348 19 14.5 19C14.7652 19 15.0196 18.8946 15.2071 18.7071C15.3946 18.5196 15.5 18.2652 15.5 18V15.5H18C18.2652 15.5 18.5196 15.3946 18.7071 15.2071C18.8946 15.0196 19 14.7652 19 14.5C19 14.2348 18.8946 13.9804 18.7071 13.7929C18.5196 13.6054 18.2652 13.5 18 13.5H15.5V11C15.5 10.7348 15.3946 10.4804 15.2071 10.2929C15.0196 10.1054 14.7652 10 14.5 10C14.2348 10 13.9804 10.1054 13.7929 10.2929C13.6054 10.4804 13.5 10.7348 13.5 11V13.5H11C10.7348 13.5 10.4804 13.6054 10.2929 13.7929C10.1054 13.9804 10 14.2348 10 14.5C10 14.7652 10.1054 15.0196 10.2929 15.2071C10.4804 15.3946 10.7348 15.5 11 15.5V15.5Z" fill="black"/>
<path d="M15.914 34L17.682 32.232C17.7775 32.1397 17.8537 32.0294 17.9061 31.9074C17.9585 31.7854 17.9861 31.6542 17.9872 31.5214C17.9884 31.3886 17.9631 31.2569 17.9128 31.134C17.8625 31.0111 17.7883 30.8995 17.6944 30.8056C17.6005 30.7117 17.4888 30.6374 17.3659 30.5872C17.243 30.5369 17.1114 30.5116 16.9786 30.5127C16.8458 30.5139 16.7146 30.5415 16.5926 30.5939C16.4706 30.6463 16.3602 30.7225 16.268 30.818L14.5 32.586L12.732 30.818C12.6397 30.7225 12.5294 30.6463 12.4074 30.5939C12.2854 30.5415 12.1542 30.5139 12.0214 30.5127C11.8886 30.5116 11.7569 30.5369 11.634 30.5872C11.5111 30.6374 11.3995 30.7117 11.3056 30.8056C11.2117 30.8995 11.1374 31.0111 11.0872 31.134C11.0369 31.2569 11.0116 31.3886 11.0127 31.5214C11.0139 31.6542 11.0415 31.7854 11.0939 31.9074C11.1463 32.0294 11.2225 32.1397 11.318 32.232L13.086 34L11.318 35.768C11.2225 35.8602 11.1463 35.9706 11.0939 36.0926C11.0415 36.2146 11.0139 36.3458 11.0127 36.4786C11.0116 36.6114 11.0369 36.743 11.0872 36.8659C11.1374 36.9888 11.2117 37.1005 11.3056 37.1944C11.3995 37.2883 11.5111 37.3625 11.634 37.4128C11.7569 37.4631 11.8886 37.4884 12.0214 37.4872C12.1542 37.4861 12.2854 37.4585 12.4074 37.4061C12.5294 37.3537 12.6397 37.2775 12.732 37.182L14.5 35.414L16.268 37.182C16.3602 37.2775 16.4706 37.3537 16.5926 37.4061C16.7146 37.4585 16.8458 37.4861 16.9786 37.4872C17.1114 37.4884 17.243 37.4631 17.3659 37.4128C17.4888 37.3625 17.6005 37.2883 17.6944 37.1944C17.7883 37.1005 17.8625 36.9888 17.9128 36.8659C17.9631 36.743 17.9884 36.6114 17.9872 36.4786C17.9861 36.3458 17.9585 36.2146 17.9061 36.0926C17.8537 35.9706 17.7775 35.8602 17.682 35.768L15.914 34Z" fill="black"/>
<path d="M30 15.5H37C37.2652 15.5 37.5196 15.3946 37.7071 15.2071C37.8946 15.0196 38 14.7652 38 14.5C38 14.2348 37.8946 13.9804 37.7071 13.7929C37.5196 13.6054 37.2652 13.5 37 13.5H30C29.7348 13.5 29.4804 13.6054 29.2929 13.7929C29.1054 13.9804 29 14.2348 29 14.5C29 14.7652 29.1054 15.0196 29.2929 15.2071C29.4804 15.3946 29.7348 15.5 30 15.5Z" fill="black"/>
<path d="M37 31H30C29.7348 31 29.4804 31.1054 29.2929 31.2929C29.1054 31.4804 29 31.7348 29 32C29 32.2652 29.1054 32.5196 29.2929 32.7071C29.4804 32.8946 29.7348 33 30 33H37C37.2652 33 37.5196 32.8946 37.7071 32.7071C37.8946 32.5196 38 32.2652 38 32C38 31.7348 37.8946 31.4804 37.7071 31.2929C37.5196 31.1054 37.2652 31 37 31Z" fill="black"/>
<path d="M37 35H30C29.7348 35 29.4804 35.1054 29.2929 35.2929C29.1054 35.4804 29 35.7348 29 36C29 36.2652 29.1054 36.5196 29.2929 36.7071C29.4804 36.8946 29.7348 37 30 37H37C37.2652 37 37.5196 36.8946 37.7071 36.7071C37.8946 36.5196 38 36.2652 38 36C38 35.7348 37.8946 35.4804 37.7071 35.2929C37.5196 35.1054 37.2652 35 37 35Z" fill="black"/>
</svg>
